<svg xmlns="http://www.w3.org/2000/svg" width="12.002" height="14.741" viewBox="0 0 12.002 14.741">
  <g id="trash" transform="translate(-12.5 -8)">
    <g id="Icon-Trash" transform="translate(12.5 8)">
      <path id="Fill-6" d="M-207.5-205.1h.923v7.386h-.923Z" transform="translate(211.193 209.685)" fill="#fff"/>
      <path id="Fill-7" d="M-201.5-205.1h.923v7.386h-.923Z" transform="translate(207.039 209.685)" fill="#fff"/>
      <path id="Fill-8" d="M-195.5-205.1h.923v7.386h-.923Z" transform="translate(202.886 209.685)" fill="#fff"/>
      <path id="Fill-9" d="M-219.5-214.1h12v.923h-12Z" transform="translate(219.5 215.916)" fill="#fff"/>
      <path id="Fill-10" d="M-202.845-217.723h-.862v-.923a.486.486,0,0,0-.492-.492h-1.846a.486.486,0,0,0-.492.492v.923h-.862v-.923A1.366,1.366,0,0,1-206.046-220h1.846a1.366,1.366,0,0,1,1.354,1.354v.923" transform="translate(211.124 220)" fill="#fff"/>
      <path id="Fill-11" d="M-208.652-200.206h-5.539a1.494,1.494,0,0,1-1.446-1.354l-.862-11.079.923-.062.862,11.079a.558.558,0,0,0,.523.492h5.539a.535.535,0,0,0,.523-.492l.862-11.079.923.062-.862,11.079a1.469,1.469,0,0,1-1.446,1.354" transform="translate(217.423 214.947)" fill="#fff"/>
    </g>
  </g>
</svg>
